<svg xmlns="http://www.w3.org/2000/svg" xmlns:xlink="http://www.w3.org/1999/xlink" width="139" height="118" viewBox="0 0 139 118">
    <defs>
        <path id="prefix__a" d="M0 0H144V144H0z"/>
        <path id="prefix__c" d="M0.095 0.136L66.918 0.136 66.918 84.9 0.095 84.9z"/>
        <path id="prefix__e" d="M0.053 0.203L1.628 0.203 1.628 7.945 0.053 7.945z"/>
    </defs>
    <g fill="none" fill-rule="evenodd" transform="translate(0 -16)">
        <mask id="prefix__b" fill="#fff">
            <use xlink:href="#prefix__a"/>
        </mask>
        <g mask="url(#prefix__b)">
            <g>
                <g transform="translate(-5 16) translate(76.39 32.582)">
                    <mask id="prefix__d" fill="#fff">
                        <use xlink:href="#prefix__c"/>
                    </mask>
                    <path fill="#FFF" d="M16.63 27.066c.114-1.754.278-3.507.335-5.263.188-5.857.344-11.716.499-17.574.023-.884.17-1.727.523-2.527.828-1.879 2.325-2.096 3.592-.493 1.187 1.503 1.239 3.359 1.369 5.178.439 6.16.086 12.332.24 18.496.023.908.023 1.818.442 3.004.416-1.685.496-3.125.537-4.553.124-4.34.197-8.682.29-13.023.03-1.4.19-2.777.792-4.05.387-.82.926-1.456 1.909-1.387 1.026.073 1.841.474 2.209 1.574.553 1.66.73 3.386.773 5.126.104 4.166.176 8.334.258 12.502.022 1.117.174 2.205.602 3.608.43-2.247.395-4.15.392-6.046-.002-1.614.14-3.208.452-4.787.136-.688.366-1.337.767-1.905.447-.633 1.017-1.022 1.803-.916.802.107 1.224.664 1.462 1.413.692 2.183.588 4.463.686 6.709.156 3.555-.028 7.116.217 10.677.347 5.029 2.609 8.976 5.99 12.341 4.478 4.458 9.92 7.186 15.62 9.397 2.365.918 4.808 1.617 7.215 2.413.197.066.397.123.598.176.684.183.8.72.669 1.32-.166.763-.73.407-1.112.304-4.458-1.202-8.815-2.712-13.004-4.735-4.203-2.03-8.13-4.5-11.455-7.913-4.066-4.175-6.136-9.185-6.251-15.24-.085-4.464.069-8.946-.365-13.403-.017-.173-.031-.347-.065-.517-.074-.371-.05-.9-.5-.935-.538-.04-.586.542-.67.938-.146.675-.268 1.366-.301 2.055-.114 2.341-.195 4.684-.266 7.027-.027.918-.135 1.823-.378 2.699-.187.674-.46 1.375-1.235 1.476-.812.105-1.158-.59-1.453-1.204-.957-2-1.044-4.193-1.105-6.357-.088-3.17-.023-6.343-.08-9.513-.032-1.778-.17-3.556-.507-5.306-.097-.501-.193-1.095-.852-1.101-.65-.006-.801.578-.893 1.075-.347 1.881-.389 3.796-.412 5.701-.055 4.472.012 8.947-.531 13.396-.069.558-.165 1.12-.32 1.657-.225.78-.594 1.495-1.502 1.486-.882-.008-1.314-.656-1.53-1.463-.472-1.77-.578-3.596-.591-5.419-.037-4.908-.004-9.817-.044-14.726-.01-1.298-.167-2.597-.281-3.893-.034-.386-.127-.772-.24-1.143-.178-.58-.373-1.349-.987-1.366-.75-.022-.756.864-.79 1.401-.176 2.9-.348 5.805-.384 8.71-.061 4.82-.149 9.637-.525 14.444-.153 1.947-.662 2.826-1.748 2.87-.997.04-1.59-.74-1.845-2.667-.14-1.07-.149-2.164-.147-3.247.006-4.777.006-9.554-.232-14.327-.04-.793-.154-1.556-.515-2.259-.224-.436-.515-.826-1.054-.752-.536.073-.778.53-.843 1.005-.148 1.072-.28 2.155-.31 3.236-.184 6.512-.353 13.023-.307 19.54.016 2.303-.142 4.604-.805 6.824-.33 1.105-.76 2.222-2.076 2.273-1.263.05-1.903-.941-2.382-1.982-.725-1.576-1.03-3.296-1.405-4.988-.16-.72-.313-1.442-.681-2.085-.31-.541-.775-.787-1.368-.656-.634.14-.857.669-.875 1.262-.015.47.061.954.163 1.416C3.558 40.025 6.237 47.6 11.12 54.028c5.033 6.625 11.397 11.707 18.32 16.016 11.083 6.9 23.1 10.99 35.794 13.023.205.033.412.047.616.084.617.11 1.179.314 1.015 1.147-.168.85-.814.574-1.307.498-8.139-1.26-16.067-3.36-23.722-6.554-10.3-4.3-19.604-10.248-27.744-18.19-4.74-4.626-8-10.23-10.441-16.452C2.212 39.933.968 36.215.241 32.32c-.119-.633-.168-1.297-.137-1.94.065-1.37.85-2.413 1.952-2.722 1.13-.317 2.4.23 3.118 1.358.636 1.001.801 2.179 1.086 3.308.35 1.384.556 2.814 1.175 4.109.178.373.337.88.85.812.431-.057.521-.53.624-.892.391-1.38.607-2.794.63-4.234.086-5.21.149-10.42.253-15.63.053-2.691.164-5.38.276-8.07.023-.56.116-1.128.26-1.667.324-1.202.95-2.177 2.238-2.31 1.283-.131 2.098.701 2.652 1.788.642 1.258.73 2.667.744 4.058.045 4.208.06 8.417.062 12.626 0 1.389.061 2.765.29 4.13l.315.022" mask="url(#prefix__d)"/>
                </g>
                <path fill="#FFF" d="M16.246 32.583l3.161.776c3.552.87 7.104 1.74 10.656 2.612.25.061.502.122.748.2.49.158.896.434.778 1.047-.12.619-.582.712-1.101.615-.338-.063-.677-.127-1.01-.21-4.346-1.068-8.69-2.138-13.035-3.21-.25-.062-.498-.139-.743-.22-.435-.146-.834-.378-.765-.928.08-.641.58-.693 1.31-.682M32.297 7.046c.115.086.303.183.45.344 1.666 1.827 3.258 3.754 4.694 5.885.086.127.152.281.21.433.167.432.154.842-.178 1.128-.3.258-.584.118-.798-.2-1.458-2.164-3.08-4.115-4.74-6.014-.264-.302-.419-.676-.263-1.14.1-.299.293-.45.625-.436M100.975 10.299c.01.31-.164.547-.345.771-1.16 1.436-2.325 2.868-3.492 4.299-.293.359-.664.67-1.126.346-.533-.373-.266-.833.039-1.215 1.176-1.468 2.367-2.927 3.557-4.385.238-.292.525-.525.948-.388.27.088.405.295.42.572" transform="translate(-5 16)"/>
                <g transform="translate(-5 16) translate(76.39 1.761)">
                    <mask id="prefix__f" fill="#fff">
                        <use xlink:href="#prefix__e"/>
                    </mask>
                    <path fill="#FFF" d="M.055 1.838C.177 1.263-.255.266.622.205c.796-.055.609.916.658 1.503.144 1.705.245 3.415.34 5.126.028.497.023 1.074-.57 1.11-.524.031-.612-.495-.647-.952C.273 5.285.17 3.575.055 1.838" mask="url(#prefix__f)"/>
                </g>
                <path fill="#FFF" d="M50.922 6.748c.025.636-.04 1.005-.426 1.136-.436.148-.713-.119-.864-.548-.72-2.049-1.435-4.098-2.135-6.155-.139-.408-.137-.848.277-1.084.342-.195.694-.093.862.283.947 2.119 1.666 4.341 2.286 6.368M133.478 37.881c.552.118 1.639-.356 1.735.607.103 1.027-1.05.74-1.698.804-1.645.167-3.303.232-4.957.327-.563.032-1.162-.002-1.235-.647-.074-.658.52-.794 1.076-.829 1.654-.103 3.31-.173 5.079-.262M134.292 59c-1.47-.49-3.084-1.014-4.694-1.576-.378-.133-.589-.572-.507-1.225.076-.61.392-.77.71-.71 1.673.314 3.314.903 4.947 1.542.32.125.522.565.46 1.136-.072.665-.387.843-.916.833M122.927 20.219c-.033.332-.196.574-.406.772-1.174 1.114-2.344 2.233-3.53 3.328-.38.352-.832.548-1.188-.023-.31-.498-.076-.95.265-1.279 1.196-1.152 2.404-2.286 3.617-3.413.286-.265.619-.322.945-.065.202.16.297.393.297.68M85.165 100.932c0 .725.016 1.45-.006 2.175-.014.442-.209.804-.753.803-.54 0-.74-.357-.766-.799-.088-1.446-.177-2.894-.224-4.342-.017-.506.148-1.027.819-1.023.642.004.845.497.87 1.011.033.724.007 1.45.007 2.175h.053zM60.587 105.046c.016-.385-.125-1.036.611-1.126.77-.095.792.557.844 1.066.114 1.097.204 2.197.294 3.297.037.448-.102.848-.625.904-.598.065-.812-.358-.859-.832-.104-1.062-.173-2.127-.265-3.31M35.278 99.507c-.419.004-.678-.113-.86-.387-.26-.39-.224-.8.074-1.111 1.14-1.188 2.294-2.363 3.477-3.507.344-.334.842-.39 1.226-.045.457.409.382.96.017 1.35-1.09 1.165-2.228 2.286-3.365 3.406-.167.164-.431.226-.57.294M66.894 45.926c-.126 8.096-2.055 15.724-5.045 23.155-2.455 6.1-7.022 8.854-12.819 10.017-.607.122-1.224.221-1.84.26-5.084.325-8.1-1.644-10.118-6.61-1.3-3.198-1.927-6.57-2.201-10.019-.427-5.38-1.055-10.745-1.146-16.151-.012-.699-.015-1.398.223-2.067.13-.367.238-.812.677-.838.498-.03.701.408.832.83.454 1.461.527 2.994.747 4.499.17 1.161.294 2.34.592 3.467.454 1.719 2.102 2.059 3.239.725.567-.666.848-1.494 1.06-2.34.51-2.03.83-4.103.8-6.2-.064-4.234.57-8.43.56-12.66-.002-.81.212-1.69 1.17-1.702.956-.013 1.18.868 1.212 1.672.065 1.61.054 3.224.056 4.837.004 3.965.106 7.927.423 11.88.057.709.145 1.43.985 1.605.818.17 1.548.049 2.137-.668 1.245-1.513 1.488-3.375 1.632-5.248.44-5.733.564-11.483.753-17.229.022-.66.051-1.312.413-1.882.209-.329.446-.667.876-.623.447.045.597.442.686.824.42 1.789.569 3.597.436 5.443-.383 5.348-.502 10.705-.402 16.066.009.475.103.952.2 1.418.257 1.232.836 2.04 2.189 2.008 1.74-.043 2.357-.41 2.683-2.038.581-2.902.772-5.865 1.116-8.804.283-2.421.57-4.842.891-7.257.064-.48.065-1.19.733-1.18.637.01.678.703.755 1.188.158.987.31 1.986.325 2.983.074 4.793.162 9.588-.387 14.363-.096.838.046 1.663.232 2.46.22.94.75 1.744 1.739 1.787 1.025.045 1.587-.772 1.76-1.713.293-1.578.438-3.186.645-4.781.133-1.02.204-2.056.723-3.186.461.663.466 1.194.458 1.71m1.383-1.952c-.198-.822-.63-1.424-1.513-1.483-.875-.058-1.54.309-1.894 1.167-.18.435-.326.902-.392 1.37-.266 1.894-.489 3.795-.743 5.692-.053.393.065.89-.521 1.116-.435-1.109-.263-2.243-.18-3.336.272-3.605.481-7.214.396-10.83-.052-2.214-.087-4.455-.725-6.597-.494-1.655-1.729-2.258-3.097-1.54-1.021.535-1.177 1.643-1.303 2.673-.458 3.757-.852 7.523-1.3 11.282-.175 1.467-.417 2.927-.652 4.386-.085.529-.397.846-.94.855-.582.011-.79-.377-.868-.899-.076-.516-.188-1.033-.197-1.552-.076-4.401.177-8.793.355-13.188.107-2.65.37-5.315-.317-7.928-.316-1.205-.884-2.19-2.232-2.265-1.056-.059-2.14.817-2.582 2.09-.345.993-.411 2.038-.438 3.089-.097 3.744-.135 7.492-.335 11.23-.128 2.386-.141 4.795-.643 7.145-.167.78-.353 1.576-1.172 2.07-.47-1.952-.326-3.83-.369-5.694-.087-3.744-.128-7.49-.257-11.234-.065-1.878-1.2-3.012-2.797-2.996-1.466.014-2.577 1.14-2.622 2.883-.096 3.788-.592 7.554-.536 11.35.031 2.053-.223 4.085-.535 6.107-.139.903-.344 1.797-.746 2.62-.126.259-.236.62-.6.545-.286-.06-.302-.387-.34-.639-.17-1.117-.351-2.234-.484-3.356-.174-1.471-.312-2.95-.807-4.35-.412-1.168-1.19-1.91-2.413-1.89-1.198.019-1.686.981-2.017 2-.171.524-.244 1.109-.244 1.666 0 1.96-.014 3.925.11 5.88.065 1.022-.087 1.23-1.036.86C20.867 48.215 10.43 44.185 0 40.147v1.831c10.505 4.058 21.007 8.123 31.519 12.16.837.321 1.128.882 1.198 1.749.236 2.948.413 5.906.784 8.836.63 4.972 1.728 9.78 5.215 13.546.114.124.195.276-.017.565-3.035-.37-6.145-.71-9.246-1.133C19.633 76.36 9.817 74.986 0 73.626v1.83c.495.016.995-.012 1.484.055 12.732 1.743 25.436 3.723 38.215 5.07 3.314.349 6.647.886 9.982.102 5.48-1.288 10.249-3.614 12.856-9.345 3.361-7.39 5.514-15.109 5.876-23.328.06-1.34.185-2.704-.136-4.035" transform="translate(-5 16)"/>
            </g>
        </g>
    </g>
</svg>
